<?xml version="1.0" encoding="UTF-8" standalone="no"?>
<!DOCTYPE svg PUBLIC "-//W3C//DTD SVG 1.1//EN" "http://www.w3.org/Graphics/SVG/1.1/DTD/svg11.dtd">
<svg width="7816px" height="4946px" version="1.1" xmlns="http://www.w3.org/2000/svg" xmlns:xlink="http://www.w3.org/1999/xlink" xml:space="preserve" xmlns:serif="http://www.serif.com/" style="fill-rule:evenodd;clip-rule:evenodd;stroke-linejoin:round;stroke-miterlimit:2;">
    <g transform="matrix(1,0,0,1,-7346.24,-44264)">
        <g transform="matrix(8.33333,0,0,8.33333,0,0)">
            <g>
                <g opacity="0.59">
                    <g transform="matrix(1,0,0,1,996.628,5412.47)">
                        <path d="M0,303.031c-28.289,-26.384 -31.609,-69.822 -8.057,-100.186c8.173,-10.537 16.511,-21.022 23.226,-32.625c14.518,-25.086 11.597,-54.795 -7.517,-76.489c-16.922,-19.207 -16.673,-47.869 0.574,-66.022c18.137,-19.091 46.714,-21.097 67.135,-4.713c20.8,16.688 52.469,17.327 75.482,1.587c11.218,-7.674 21.328,-16.732 31.338,-25.813c30.338,-27.519 79.398,-24.518 105.784,6.853c24.035,28.578 24.546,69.013 1.216,96.338c-24.718,28.95 -64.363,35.587 -96.761,15.524c-11.483,-7.111 -21.849,-16.002 -33.005,-23.674c-15.882,-10.923 -33.09,-16.654 -52.399,-10.67c-34.356,10.647 -47.785,48.511 -28.754,80.755c7.593,12.865 17.896,23.648 27.782,34.64c24.611,27.365 25.767,70.201 2.073,97.701c-25.29,29.352 -67.06,35.543 -98.24,14.635c-3.518,-2.36 -6.819,-4.932 -9.877,-7.841" style="fill:#fff;fill-rule:nonzero;"/>
                    </g>
                    <g transform="matrix(-0.732877,-0.680361,-0.680361,0.732877,1065.73,5362.64)">
                        <path d="M-32.289,-82.022c-26.349,0.008 -47.498,21.106 -47.495,47.383c0.002,26.251 21.271,47.488 47.495,47.425c26.497,-0.062 47.329,-20.94 47.326,-47.427c-0.004,-26.529 -20.84,-47.39 -47.326,-47.381" style="fill:#fff;fill-rule:nonzero;"/>
                    </g>
                    <g transform="matrix(-0.733892,-0.679266,-0.679266,0.733892,881.615,5657.56)">
                        <path d="M-22.513,-56.993c-18.2,0.08 -32.756,14.695 -32.737,32.87c0.018,18.131 14.701,32.931 32.737,32.997c18.162,0.067 33.332,-15.171 33.124,-33.273c-0.208,-18.117 -15,-32.673 -33.124,-32.594" style="fill:#fff;fill-rule:nonzero;"/>
                    </g>
                    <g transform="matrix(-0.735141,-0.677914,-0.677914,0.735141,1095.94,5557.82)">
                        <path d="M-22.484,-56.793c-18.201,0.066 -32.833,14.682 -32.836,32.798c-0.003,17.956 14.908,32.946 32.836,33.01c18.282,0.067 33.147,-14.933 32.988,-33.286c-0.159,-18.295 -14.657,-32.588 -32.988,-32.522" style="fill:#fff;fill-rule:nonzero;"/>
                    </g>
                    <g transform="matrix(0.72971,0.683757,0.683757,-0.72971,970.132,5361.79)">
                        <path d="M22.513,-8.68c-18.614,-0.032 -33.055,14.364 -33.07,32.97c-0.016,18.393 14.717,33.178 33.07,33.185c17.507,0.008 33.092,-15.519 33.106,-32.982c0.016,-18.372 -14.723,-33.141 -33.106,-33.173" style="fill:#fff;fill-rule:nonzero;"/>
                    </g>
                    <g transform="matrix(0.731294,0.682062,0.682062,-0.731294,971.581,5756.91)">
                        <path d="M10.282,-4.07c-8.187,-0.028 -15.019,6.85 -14.981,15.082c0.039,8.312 6.776,15.095 14.981,15.081c8.278,-0.012 15.003,-6.776 14.987,-15.07c-0.018,-8.339 -6.695,-15.065 -14.987,-15.093" style="fill:#fff;fill-rule:nonzero;"/>
                    </g>
                    <g transform="matrix(0.721861,0.692038,0.692038,-0.721861,936.077,5501.74)">
                        <path d="M10.33,-4.173c-8.22,-0.035 -15.094,6.772 -15.098,14.95c-0.004,8.229 6.802,14.959 15.098,14.927c8.349,-0.031 15.116,-6.741 15.076,-14.949c-0.04,-8.341 -6.656,-14.892 -15.076,-14.928" style="fill:#fff;fill-rule:nonzero;"/>
                    </g>
                </g>
                <g>
                    <g transform="matrix(185.525,375.667,375.667,-185.525,1217.03,5455.2)">
                        <path d="M0.188,0.002c0.06,-0.065 0.15,-0.083 0.227,-0.052c0.087,0.035 0.172,0.066 0.267,-0.139c0.033,-0.073 0.042,-0.164 0.12,-0.216c0.187,-0.126 0.264,0.136 0.078,0.116c-0.068,-0.007 -0.181,0.031 -0.185,0.176c-0.004,0.156 0.259,0.235 0.321,0.053c0.053,-0.155 0.247,0.005 0.077,0.07c-0.062,0.023 -0.114,0.008 -0.165,0.092c-0.029,0.052 -0.023,0.114 0.017,0.159c0.019,0.021 0.04,0.039 0.061,0.057c0.061,0.052 0.073,0.142 0.026,0.208c-0.005,0.007 -0.01,0.014 -0.017,0.02c-0.055,0.056 -0.142,0.061 -0.206,0.012c-0.06,-0.046 -0.076,-0.134 -0.037,-0.201c0.015,-0.026 0.026,-0.033 0.064,-0.088c0.045,-0.064 0.021,-0.179 -0.07,-0.225c-0.098,-0.051 -0.183,-0.024 -0.216,0.096c-0.009,0.031 -0.028,0.106 -0.06,0.14c-0.077,0.084 -0.206,0.089 -0.29,0.012c-0.02,-0.018 -0.035,-0.039 -0.046,-0.061c-0.037,-0.074 -0.026,-0.164 0.034,-0.229Z" style="fill:url(#_Linear1);fill-rule:nonzero;"/>
                    </g>
                    <g transform="matrix(0.000901936,-1,-1,-0.000901936,1413.51,5647.19)">
                        <path d="M-34.35,-34.352c-18.99,0.014 -34.504,15.492 -34.486,34.403c0.02,18.995 15.434,34.344 34.486,34.338c19.084,-0.007 34.414,-15.282 34.46,-34.334c0.046,-18.909 -15.49,-34.422 -34.46,-34.407" style="fill:#0381ff;fill-rule:nonzero;"/>
                    </g>
                    <g transform="matrix(1,0,0,1,1436.66,5541.29)">
                        <path d="M0.799,101.84l75.919,-100.84c-0,0 253.435,0 253.435,0l0,-2l-254.433,0l-76.519,101.638l1.598,1.202Z" style="fill:#73ffd4;"/>
                    </g>
                    <g>
                        <path d="M1524.23,5478.7l2.762,0.366c-0.302,1.94 -1.074,3.459 -2.318,4.556c-1.243,1.097 -2.77,1.646 -4.58,1.646c-2.269,-0 -4.092,-0.756 -5.471,-2.266c-1.378,-1.511 -2.068,-3.677 -2.068,-6.497c0,-1.823 0.297,-3.419 0.89,-4.787c0.593,-1.367 1.496,-2.393 2.708,-3.077c1.212,-0.684 2.531,-1.025 3.956,-1.025c1.8,-0 3.273,0.463 4.417,1.391c1.145,0.928 1.878,2.245 2.201,3.952l-2.731,0.429c-0.261,-1.134 -0.721,-1.988 -1.382,-2.56c-0.66,-0.573 -1.459,-0.859 -2.395,-0.859c-1.416,0 -2.565,0.517 -3.45,1.551c-0.884,1.033 -1.326,2.669 -1.326,4.906c-0,2.269 0.426,3.917 1.279,4.946c0.854,1.028 1.967,1.542 3.34,1.542c1.103,0 2.024,-0.344 2.763,-1.033c0.739,-0.69 1.207,-1.75 1.405,-3.181Z" style="fill:#0381ff;fill-rule:nonzero;"/>
                        <path d="M1528.91,5484.88l0,-23.314l2.81,0l-0,8.365c1.311,-1.548 2.965,-2.321 4.963,-2.321c1.228,-0 2.294,0.246 3.199,0.739c0.905,0.493 1.553,1.174 1.943,2.044c0.391,0.869 0.586,2.131 0.586,3.784l-0,10.703l-2.81,0l0,-10.703c0,-1.431 -0.304,-2.472 -0.913,-3.124c-0.608,-0.653 -1.469,-0.979 -2.583,-0.979c-0.832,0 -1.615,0.22 -2.349,0.66c-0.733,0.44 -1.256,1.037 -1.568,1.79c-0.312,0.752 -0.468,1.791 -0.468,3.117l-0,9.239l-2.81,0Z" style="fill:#0381ff;fill-rule:nonzero;"/>
                        <path d="M1545.17,5476.44c-0,-3.128 0.853,-5.444 2.56,-6.95c1.425,-1.251 3.163,-1.876 5.212,-1.876c2.279,-0 4.142,0.76 5.588,2.282c1.446,1.521 2.169,3.623 2.169,6.305c0,2.174 -0.32,3.883 -0.96,5.129c-0.639,1.246 -1.571,2.213 -2.793,2.902c-1.223,0.689 -2.557,1.034 -4.004,1.034c-2.32,-0 -4.195,-0.758 -5.626,-2.274c-1.431,-1.516 -2.146,-3.7 -2.146,-6.552Zm2.887,-0c0,2.163 0.463,3.782 1.389,4.858c0.926,1.076 2.092,1.614 3.496,1.614c1.395,0 2.555,-0.54 3.481,-1.622c0.926,-1.081 1.389,-2.73 1.389,-4.946c-0,-2.088 -0.466,-3.671 -1.397,-4.747c-0.931,-1.076 -2.089,-1.614 -3.473,-1.614c-1.404,0 -2.57,0.535 -3.496,1.606c-0.926,1.071 -1.389,2.688 -1.389,4.851Z" style="fill:#0381ff;fill-rule:nonzero;"/>
                        <path d="M1562.46,5476.44c0,-3.128 0.854,-5.444 2.56,-6.95c1.425,-1.251 3.163,-1.876 5.213,-1.876c2.279,-0 4.141,0.76 5.587,2.282c1.447,1.521 2.17,3.623 2.17,6.305c-0,2.174 -0.32,3.883 -0.96,5.129c-0.64,1.246 -1.571,2.213 -2.794,2.902c-1.222,0.689 -2.557,1.034 -4.003,1.034c-2.32,-0 -4.196,-0.758 -5.627,-2.274c-1.43,-1.516 -2.146,-3.7 -2.146,-6.552Zm2.888,-0c-0,2.163 0.463,3.782 1.389,4.858c0.926,1.076 2.091,1.614 3.496,1.614c1.394,0 2.554,-0.54 3.48,-1.622c0.926,-1.081 1.389,-2.73 1.389,-4.946c0,-2.088 -0.465,-3.671 -1.397,-4.747c-0.931,-1.076 -2.088,-1.614 -3.472,-1.614c-1.405,0 -2.57,0.535 -3.496,1.606c-0.926,1.071 -1.389,2.688 -1.389,4.851Z" style="fill:#0381ff;fill-rule:nonzero;"/>
                        <path d="M1579.68,5479.84l2.778,-0.445c0.156,1.134 0.59,2.003 1.303,2.608c0.713,0.604 1.709,0.906 2.989,0.906c1.29,0 2.247,-0.267 2.872,-0.803c0.624,-0.535 0.936,-1.163 0.936,-1.884c0,-0.647 -0.276,-1.156 -0.827,-1.527c-0.385,-0.255 -1.342,-0.578 -2.872,-0.97c-2.06,-0.53 -3.488,-0.989 -4.284,-1.376c-0.796,-0.387 -1.4,-0.922 -1.811,-1.606c-0.411,-0.684 -0.616,-1.439 -0.616,-2.266c-0,-0.753 0.169,-1.45 0.507,-2.091c0.338,-0.642 0.799,-1.175 1.381,-1.599c0.437,-0.328 1.033,-0.607 1.787,-0.835c0.755,-0.228 1.564,-0.341 2.427,-0.341c1.301,-0 2.443,0.19 3.426,0.572c0.984,0.382 1.709,0.899 2.177,1.551c0.469,0.652 0.791,1.524 0.968,2.616l-2.747,0.381c-0.125,-0.869 -0.486,-1.548 -1.084,-2.035c-0.599,-0.488 -1.444,-0.732 -2.537,-0.732c-1.29,0 -2.211,0.218 -2.762,0.652c-0.552,0.435 -0.827,0.944 -0.827,1.527c-0,0.371 0.114,0.705 0.343,1.002c0.229,0.307 0.588,0.562 1.077,0.763c0.281,0.106 1.108,0.35 2.481,0.732c1.988,0.54 3.374,0.983 4.16,1.328c0.785,0.344 1.402,0.845 1.849,1.502c0.448,0.658 0.671,1.474 0.671,2.449c0,0.955 -0.273,1.853 -0.819,2.696c-0.546,0.843 -1.334,1.495 -2.364,1.956c-1.031,0.461 -2.196,0.692 -3.497,0.692c-2.153,-0 -3.795,-0.456 -4.924,-1.368c-1.129,-0.912 -1.849,-2.263 -2.161,-4.055Z" style="fill:#0381ff;fill-rule:nonzero;"/>
                        <path d="M1607.66,5479.44l2.903,0.366c-0.458,1.728 -1.306,3.069 -2.544,4.024c-1.239,0.954 -2.82,1.431 -4.745,1.431c-2.424,-0 -4.347,-0.761 -5.767,-2.282c-1.42,-1.522 -2.13,-3.655 -2.13,-6.401c-0,-2.842 0.717,-5.047 2.153,-6.616c1.436,-1.569 3.299,-2.353 5.588,-2.353c2.216,-0 4.027,0.768 5.431,2.305c1.405,1.538 2.107,3.701 2.107,6.489c0,0.17 -0.005,0.424 -0.015,0.763l-12.362,0c0.105,1.856 0.62,3.276 1.546,4.262c0.926,0.986 2.081,1.479 3.464,1.479c1.031,0 1.91,-0.275 2.638,-0.827c0.728,-0.551 1.306,-1.431 1.733,-2.64Zm-9.224,-4.627l9.255,-0c-0.125,-1.421 -0.479,-2.487 -1.062,-3.197c-0.894,-1.103 -2.055,-1.654 -3.48,-1.654c-1.29,0 -2.375,0.44 -3.254,1.32c-0.879,0.88 -1.366,2.057 -1.459,3.531Z" style="fill:#0381ff;fill-rule:nonzero;"/>
                        <path d="M1524.07,5504.27l-0,4.581l-3.853,-0l-0,8.751c-0,1.772 0.036,2.804 0.11,3.097c0.074,0.293 0.241,0.535 0.502,0.726c0.261,0.191 0.578,0.287 0.953,0.287c0.522,-0 1.277,-0.184 2.267,-0.553l0.482,4.458c-1.311,0.572 -2.796,0.859 -4.455,0.859c-1.016,-0 -1.933,-0.174 -2.749,-0.522c-0.816,-0.347 -1.415,-0.797 -1.796,-1.349c-0.381,-0.552 -0.645,-1.299 -0.793,-2.239c-0.12,-0.668 -0.18,-2.018 -0.18,-4.049l-0,-9.466l-2.589,-0l0,-4.581l2.589,0l-0,-4.314l5.659,-3.353l-0,7.667l3.853,0Z" style="fill:#0381ff;fill-rule:nonzero;"/>
                        <path d="M1533.19,5496.01l0,11.021c1.82,-2.168 3.993,-3.251 6.522,-3.251c1.298,-0 2.468,0.245 3.512,0.736c1.043,0.491 1.829,1.118 2.357,1.881c0.529,0.763 0.89,1.608 1.084,2.535c0.194,0.927 0.291,2.365 0.291,4.315l-0,12.738l-5.639,-0l0,-11.471c0,-2.276 -0.107,-3.721 -0.321,-4.334c-0.214,-0.614 -0.592,-1.101 -1.134,-1.462c-0.541,-0.362 -1.22,-0.542 -2.036,-0.542c-0.937,-0 -1.773,0.231 -2.509,0.695c-0.735,0.463 -1.274,1.162 -1.615,2.096c-0.341,0.933 -0.512,2.314 -0.512,4.14l0,10.878l-5.639,-0l0,-29.975l5.639,-0Z" style="fill:#0381ff;fill-rule:nonzero;"/>
                        <path d="M1564.61,5519.07l5.619,0.961c-0.723,2.099 -1.863,3.697 -3.422,4.795c-1.558,1.097 -3.508,1.646 -5.849,1.646c-3.706,-0 -6.448,-1.234 -8.227,-3.701c-1.405,-1.977 -2.107,-4.471 -2.107,-7.484c-0,-3.598 0.923,-6.417 2.769,-8.455c1.846,-2.037 4.18,-3.056 7.003,-3.056c3.171,-0 5.672,1.066 7.505,3.2c1.833,2.133 2.709,5.401 2.629,9.804l-14.127,-0c0.04,1.704 0.495,3.029 1.364,3.977c0.87,0.947 1.953,1.421 3.251,1.421c0.883,-0 1.626,-0.246 2.228,-0.736c0.602,-0.491 1.056,-1.282 1.364,-2.372Zm0.321,-5.807c-0.04,-1.663 -0.461,-2.927 -1.264,-3.793c-0.803,-0.865 -1.779,-1.298 -2.93,-1.298c-1.231,-0 -2.247,0.456 -3.05,1.37c-0.803,0.913 -1.197,2.153 -1.184,3.721l8.428,0Z" style="fill:#0381ff;fill-rule:nonzero;"/>
                        <path d="M1586.58,5525.98l-0,-29.975l5.639,-0l-0,10.796c1.739,-2.018 3.799,-3.026 6.18,-3.026c2.595,-0 4.743,0.957 6.442,2.872c1.699,1.916 2.548,4.666 2.548,8.251c0,3.707 -0.866,6.563 -2.599,8.567c-1.732,2.004 -3.836,3.006 -6.311,3.006c-1.217,-0 -2.418,-0.31 -3.602,-0.931c-1.183,-0.62 -2.204,-1.537 -3.06,-2.75l0,3.19l-5.237,-0Zm5.599,-11.328c-0,2.25 0.347,3.913 1.043,4.989c0.977,1.527 2.274,2.29 3.893,2.29c1.244,0 2.304,-0.541 3.18,-1.625c0.877,-1.084 1.315,-2.791 1.315,-5.122c-0,-2.481 -0.442,-4.27 -1.325,-5.367c-0.882,-1.098 -2.013,-1.646 -3.391,-1.646c-1.351,-0 -2.475,0.535 -3.371,1.605c-0.896,1.07 -1.344,2.695 -1.344,4.876Z" style="fill:#0381ff;fill-rule:nonzero;"/>
                        <path d="M1623.85,5519.07l5.619,0.961c-0.723,2.099 -1.863,3.697 -3.421,4.795c-1.559,1.097 -3.509,1.646 -5.85,1.646c-3.706,-0 -6.448,-1.234 -8.227,-3.701c-1.405,-1.977 -2.107,-4.471 -2.107,-7.484c-0,-3.598 0.923,-6.417 2.769,-8.455c1.846,-2.037 4.18,-3.056 7.003,-3.056c3.171,-0 5.672,1.066 7.505,3.2c1.833,2.133 2.709,5.401 2.629,9.804l-14.127,-0c0.04,1.704 0.495,3.029 1.364,3.977c0.87,0.947 1.954,1.421 3.251,1.421c0.883,-0 1.626,-0.246 2.228,-0.736c0.602,-0.491 1.057,-1.282 1.364,-2.372Zm0.321,-5.807c-0.04,-1.663 -0.461,-2.927 -1.264,-3.793c-0.803,-0.865 -1.779,-1.298 -2.93,-1.298c-1.23,-0 -2.247,0.456 -3.05,1.37c-0.802,0.913 -1.197,2.153 -1.184,3.721l8.428,0Z" style="fill:#0381ff;fill-rule:nonzero;"/>
                        <path d="M1631.97,5519.78l5.658,-0.88c0.241,1.118 0.729,1.967 1.465,2.546c0.736,0.579 1.766,0.869 3.091,0.869c1.458,-0 2.555,-0.273 3.29,-0.818c0.495,-0.382 0.743,-0.893 0.743,-1.533c-0,-0.437 -0.134,-0.798 -0.401,-1.084c-0.281,-0.273 -0.91,-0.525 -1.887,-0.757c-4.548,-1.022 -7.431,-1.956 -8.648,-2.801c-1.686,-1.172 -2.529,-2.801 -2.529,-4.887c0,-1.881 0.729,-3.462 2.187,-4.743c1.459,-1.282 3.719,-1.922 6.783,-1.922c2.916,-0 5.084,0.484 6.502,1.451c1.418,0.968 2.394,2.4 2.929,4.294l-5.317,1.002c-0.228,-0.845 -0.659,-1.492 -1.295,-1.942c-0.635,-0.45 -1.541,-0.675 -2.719,-0.675c-1.485,-0 -2.548,0.211 -3.19,0.634c-0.428,0.3 -0.642,0.688 -0.642,1.165c-0,0.409 0.187,0.757 0.561,1.043c0.509,0.382 2.265,0.92 5.268,1.615c3.003,0.696 5.1,1.547 6.291,2.556c1.177,1.023 1.766,2.447 1.766,4.274c-0,1.99 -0.816,3.7 -2.448,5.132c-1.632,1.431 -4.047,2.147 -7.244,2.147c-2.903,-0 -5.201,-0.6 -6.893,-1.8c-1.693,-1.199 -2.8,-2.828 -3.321,-4.886Z" style="fill:#0381ff;fill-rule:nonzero;"/>
                        <path d="M1666.17,5504.27l-0,4.581l-3.853,-0l-0,8.751c-0,1.772 0.037,2.804 0.11,3.097c0.074,0.293 0.241,0.535 0.502,0.726c0.261,0.191 0.578,0.287 0.953,0.287c0.522,-0 1.278,-0.184 2.268,-0.553l0.481,4.458c-1.311,0.572 -2.796,0.859 -4.455,0.859c-1.016,-0 -1.933,-0.174 -2.749,-0.522c-0.816,-0.347 -1.414,-0.797 -1.796,-1.349c-0.381,-0.552 -0.645,-1.299 -0.792,-2.239c-0.121,-0.668 -0.181,-2.018 -0.181,-4.049l0,-9.466l-2.589,-0l0,-4.581l2.589,0l0,-4.314l5.659,-3.353l-0,7.667l3.853,0Z" style="fill:#0381ff;fill-rule:nonzero;"/>
                        <path d="M1680.48,5514.82c0,-1.908 0.462,-3.755 1.385,-5.541c0.923,-1.786 2.23,-3.149 3.923,-4.089c1.692,-0.941 3.582,-1.411 5.669,-1.411c3.224,-0 5.866,1.066 7.926,3.2c2.06,2.133 3.09,4.828 3.09,8.086c0,3.285 -1.04,6.008 -3.12,8.169c-2.08,2.16 -4.699,3.241 -7.856,3.241c-1.953,-0 -3.816,-0.45 -5.589,-1.35c-1.772,-0.9 -3.12,-2.218 -4.043,-3.956c-0.923,-1.738 -1.385,-3.855 -1.385,-6.349Zm5.779,0.307c0,2.153 0.502,3.803 1.505,4.948c1.004,1.145 2.241,1.717 3.713,1.717c1.471,0 2.705,-0.572 3.702,-1.717c0.997,-1.145 1.495,-2.808 1.495,-4.989c-0,-2.127 -0.498,-3.762 -1.495,-4.907c-0.997,-1.145 -2.231,-1.718 -3.702,-1.718c-1.472,0 -2.709,0.573 -3.713,1.718c-1.003,1.145 -1.505,2.794 -1.505,4.948Z" style="fill:#0381ff;fill-rule:nonzero;"/>
                        <path d="M1725.86,5525.98l-5.638,-0l-0,-11.082c-0,-2.345 -0.121,-3.861 -0.362,-4.55c-0.24,-0.688 -0.632,-1.223 -1.174,-1.605c-0.541,-0.381 -1.194,-0.572 -1.956,-0.572c-0.977,-0 -1.853,0.272 -2.629,0.818c-0.776,0.545 -1.307,1.267 -1.595,2.167c-0.288,0.9 -0.432,2.563 -0.432,4.989l0,9.835l-5.638,-0l-0,-21.715l5.237,0l0,3.19c1.86,-2.453 4.201,-3.68 7.023,-3.68c1.245,-0 2.382,0.228 3.412,0.685c1.03,0.456 1.809,1.039 2.338,1.748c0.528,0.709 0.896,1.513 1.103,2.413c0.208,0.899 0.311,2.187 0.311,3.864l0,13.495Z" style="fill:#0381ff;fill-rule:nonzero;"/>
                        <path d="M1743.51,5519.07l5.619,0.961c-0.722,2.099 -1.863,3.697 -3.421,4.795c-1.559,1.097 -3.509,1.646 -5.85,1.646c-3.705,-0 -6.448,-1.234 -8.227,-3.701c-1.405,-1.977 -2.107,-4.471 -2.107,-7.484c-0,-3.598 0.923,-6.417 2.769,-8.455c1.846,-2.037 4.181,-3.056 7.003,-3.056c3.171,-0 5.673,1.066 7.505,3.2c1.833,2.133 2.709,5.401 2.629,9.804l-14.127,-0c0.04,1.704 0.495,3.029 1.365,3.977c0.869,0.947 1.953,1.421 3.25,1.421c0.883,-0 1.626,-0.246 2.228,-0.736c0.602,-0.491 1.057,-1.282 1.364,-2.372Zm0.321,-5.807c-0.04,-1.663 -0.461,-2.927 -1.264,-3.793c-0.802,-0.865 -1.779,-1.298 -2.93,-1.298c-1.23,-0 -2.247,0.456 -3.05,1.37c-0.802,0.913 -1.197,2.153 -1.184,3.721l8.428,0Z" style="fill:#0381ff;fill-rule:nonzero;"/>
                        <path d="M1751.63,5519.78l5.659,-0.88c0.24,1.118 0.729,1.967 1.464,2.546c0.736,0.579 1.766,0.869 3.091,0.869c1.458,-0 2.555,-0.273 3.291,-0.818c0.495,-0.382 0.742,-0.893 0.742,-1.533c0,-0.437 -0.134,-0.798 -0.401,-1.084c-0.281,-0.273 -0.91,-0.525 -1.886,-0.757c-4.549,-1.022 -7.432,-1.956 -8.649,-2.801c-1.686,-1.172 -2.529,-2.801 -2.529,-4.887c0,-1.881 0.729,-3.462 2.188,-4.743c1.458,-1.282 3.719,-1.922 6.782,-1.922c2.917,-0 5.084,0.484 6.502,1.451c1.418,0.968 2.394,2.4 2.93,4.294l-5.318,1.002c-0.228,-0.845 -0.659,-1.492 -1.294,-1.942c-0.636,-0.45 -1.542,-0.675 -2.72,-0.675c-1.484,-0 -2.548,0.211 -3.19,0.634c-0.428,0.3 -0.642,0.688 -0.642,1.165c-0,0.409 0.187,0.757 0.562,1.043c0.508,0.382 2.264,0.92 5.267,1.615c3.003,0.696 5.1,1.547 6.291,2.556c1.177,1.023 1.766,2.447 1.766,4.274c-0,1.99 -0.816,3.7 -2.448,5.132c-1.632,1.431 -4.047,2.147 -7.244,2.147c-2.903,-0 -5.201,-0.6 -6.893,-1.8c-1.693,-1.199 -2.8,-2.828 -3.321,-4.886Z" style="fill:#0381ff;fill-rule:nonzero;"/>
                    </g>
                    <g transform="matrix(1,0,0,1,1722.88,5565.88)">
                        <path d="M0.707,-78.399c21.454,-21.453 56.237,-21.453 77.692,0c21.453,21.455 21.453,56.237 -0,77.692c-21.455,21.453 -56.238,21.453 -77.692,-0.001l-1.414,1.414c22.234,22.236 58.285,22.236 80.52,0.001c22.235,-22.235 22.235,-58.285 0,-80.52c-22.235,-22.235 -58.286,-22.235 -80.52,-0l1.414,1.414Z" style="fill:#73ffd4;"/>
                    </g>
                    <g transform="matrix(0,-1,-1,0,1430.01,5640.62)">
                        <path d="M-12.543,-13.544c7.474,0 13.543,6.069 13.543,13.544c-0,7.475 -6.069,13.544 -13.543,13.544c-7.475,-0 -13.544,-6.069 -13.544,-13.544c0,-7.475 6.069,-13.544 13.544,-13.544Zm-0,2.001c-6.371,-0 -11.544,5.172 -11.544,11.543c0,6.371 5.173,11.543 11.544,11.543c6.37,0 11.542,-5.172 11.542,-11.543c0,-6.371 -5.172,-11.543 -11.542,-11.543Z" style="fill:#73ffd4;"/>
                    </g>
                </g>
            </g>
        </g>
    </g>
    <defs>
        <linearGradient id="_Linear1" x1="0" y1="0" x2="1" y2="0" gradientUnits="userSpaceOnUse" gradientTransform="matrix(1,5.55112e-17,5.55112e-17,-1,0,0.0762143)"><stop offset="0" style="stop-color:#73ffd4;stop-opacity:1"/><stop offset="0.06" style="stop-color:#73ffd4;stop-opacity:1"/><stop offset="1" style="stop-color:#0381ff;stop-opacity:1"/></linearGradient>
    </defs>
</svg>
