<?xml version="1.0" encoding="UTF-8" standalone="no"?>
<!DOCTYPE svg PUBLIC "-//W3C//DTD SVG 1.1//EN" "http://www.w3.org/Graphics/SVG/1.1/DTD/svg11.dtd">
<svg width="7816px" height="4946px" version="1.1" xmlns="http://www.w3.org/2000/svg" xmlns:xlink="http://www.w3.org/1999/xlink" xml:space="preserve" xmlns:serif="http://www.serif.com/" style="fill-rule:evenodd;clip-rule:evenodd;stroke-linejoin:round;stroke-miterlimit:2;">
    <g transform="matrix(1,0,0,1,-7346.24,-44264)">
        <g transform="matrix(8.33333,0,0,8.33333,0,0)">
            <g opacity="0.59">
                <g transform="matrix(1,0,0,1,996.628,5412.47)">
                    <path d="M0,303.031C-28.289,276.647 -31.609,233.209 -8.057,202.845C0.116,192.308 8.454,181.823 15.169,170.22C29.687,145.134 26.766,115.425 7.652,93.731C-9.27,74.524 -9.021,45.862 8.226,27.709C26.363,8.618 54.94,6.612 75.361,22.996C96.161,39.684 127.83,40.323 150.843,24.583C162.061,16.909 172.171,7.851 182.181,-1.23C212.519,-28.749 261.579,-25.748 287.965,5.623C312,34.201 312.511,74.636 289.181,101.961C264.463,130.911 224.818,137.548 192.42,117.485C180.937,110.374 170.571,101.483 159.415,93.811C143.533,82.888 126.325,77.157 107.016,83.141C72.66,93.788 59.231,131.652 78.262,163.896C85.855,176.761 96.158,187.544 106.044,198.536C130.655,225.901 131.811,268.737 108.117,296.237C82.827,325.589 41.057,331.78 9.877,310.872C6.359,308.512 3.058,305.94 0,303.031" style="fill:white;fill-rule:nonzero;"/>
                </g>
                <g transform="matrix(-0.732877,-0.680361,-0.680361,0.732877,1065.73,5362.64)">
                    <path d="M-32.289,-82.022C-58.638,-82.014 -79.787,-60.916 -79.784,-34.639C-79.782,-8.388 -58.513,12.849 -32.289,12.786C-5.792,12.724 15.04,-8.154 15.037,-34.641C15.033,-61.17 -5.803,-82.031 -32.289,-82.022" style="fill:white;fill-rule:nonzero;"/>
                </g>
                <g transform="matrix(-0.733892,-0.679266,-0.679266,0.733892,881.615,5657.56)">
                    <path d="M-22.513,-56.993C-40.713,-56.913 -55.269,-42.298 -55.25,-24.123C-55.232,-5.992 -40.549,8.808 -22.513,8.874C-4.351,8.941 10.819,-6.297 10.611,-24.399C10.403,-42.516 -4.389,-57.072 -22.513,-56.993" style="fill:white;fill-rule:nonzero;"/>
                </g>
                <g transform="matrix(-0.735141,-0.677914,-0.677914,0.735141,1095.94,5557.82)">
                    <path d="M-22.484,-56.793C-40.685,-56.727 -55.317,-42.111 -55.32,-23.995C-55.323,-6.039 -40.412,8.951 -22.484,9.015C-4.202,9.082 10.663,-5.918 10.504,-24.271C10.345,-42.566 -4.153,-56.859 -22.484,-56.793" style="fill:white;fill-rule:nonzero;"/>
                </g>
                <g transform="matrix(0.72971,0.683757,0.683757,-0.72971,970.132,5361.79)">
                    <path d="M22.513,-8.68C3.899,-8.712 -10.542,5.684 -10.557,24.29C-10.573,42.683 4.16,57.468 22.513,57.475C40.02,57.483 55.605,41.956 55.619,24.493C55.635,6.121 40.896,-8.648 22.513,-8.68" style="fill:white;fill-rule:nonzero;"/>
                </g>
                <g transform="matrix(0.731294,0.682062,0.682062,-0.731294,971.581,5756.91)">
                    <path d="M10.282,-4.07C2.095,-4.098 -4.737,2.78 -4.699,11.012C-4.66,19.324 2.077,26.107 10.282,26.093C18.56,26.081 25.285,19.317 25.269,11.023C25.251,2.684 18.574,-4.042 10.282,-4.07" style="fill:white;fill-rule:nonzero;"/>
                </g>
                <g transform="matrix(0.721861,0.692038,0.692038,-0.721861,936.077,5501.74)">
                    <path d="M10.33,-4.173C2.11,-4.208 -4.764,2.599 -4.768,10.777C-4.772,19.006 2.034,25.736 10.33,25.704C18.679,25.673 25.446,18.963 25.406,10.755C25.366,2.414 18.75,-4.137 10.33,-4.173" style="fill:white;fill-rule:nonzero;"/>
                </g>
            </g>
            <g>
                <g transform="matrix(185.525,375.667,375.667,-185.525,1217.03,5455.2)">
                    <path d="M0.188,0.002C0.248,-0.063 0.338,-0.081 0.415,-0.05C0.502,-0.015 0.587,0.016 0.682,-0.189C0.715,-0.262 0.724,-0.353 0.802,-0.405C0.989,-0.531 1.066,-0.269 0.88,-0.289C0.812,-0.296 0.699,-0.258 0.695,-0.113C0.691,0.043 0.954,0.122 1.016,-0.06C1.069,-0.215 1.263,-0.055 1.093,0.01C1.031,0.033 0.979,0.018 0.928,0.102C0.899,0.154 0.905,0.216 0.945,0.261C0.964,0.282 0.985,0.3 1.006,0.318C1.067,0.37 1.079,0.46 1.032,0.526C1.027,0.533 1.022,0.54 1.015,0.546C0.96,0.602 0.873,0.607 0.809,0.558C0.749,0.512 0.733,0.424 0.772,0.357C0.787,0.331 0.798,0.324 0.836,0.269C0.881,0.205 0.857,0.09 0.766,0.044C0.668,-0.007 0.583,0.02 0.55,0.14C0.541,0.171 0.522,0.246 0.49,0.28C0.413,0.364 0.284,0.369 0.2,0.292C0.18,0.274 0.165,0.253 0.154,0.231C0.117,0.157 0.128,0.067 0.188,0.002Z" style="fill:url(#_Linear1);fill-rule:nonzero;"/>
                </g>
                <g transform="matrix(0.000901936,-1,-1,-0.000901936,1413.51,5647.19)">
                    <path d="M-34.35,-34.352C-53.34,-34.338 -68.854,-18.86 -68.836,0.051C-68.816,19.046 -53.402,34.395 -34.35,34.389C-15.266,34.382 0.064,19.107 0.11,0.055C0.156,-18.854 -15.38,-34.367 -34.35,-34.352" style="fill:rgb(3,129,255);fill-rule:nonzero;"/>
                </g>
                <g transform="matrix(1,0,0,1,1436.66,5541.29)">
                    <path d="M0.799,101.84L76.718,1C76.718,1 330.153,1 330.153,1L330.153,-1L75.72,-1L-0.799,100.638L0.799,101.84Z" style="fill:rgb(115,255,212);"/>
                </g>
                <g>
                    <path d="M1524.23,5478.7L1526.99,5479.06C1526.69,5481 1525.92,5482.52 1524.67,5483.62C1523.43,5484.72 1521.9,5485.27 1520.09,5485.27C1517.82,5485.27 1516,5484.51 1514.62,5483C1513.24,5481.49 1512.55,5479.32 1512.55,5476.5C1512.55,5474.68 1512.85,5473.08 1513.44,5471.72C1514.04,5470.35 1514.94,5469.32 1516.15,5468.64C1517.36,5467.95 1518.68,5467.61 1520.11,5467.61C1521.91,5467.61 1523.38,5468.08 1524.53,5469C1525.67,5469.93 1526.4,5471.25 1526.73,5472.96L1524,5473.39C1523.73,5472.25 1523.27,5471.4 1522.61,5470.82C1521.95,5470.25 1521.15,5469.97 1520.22,5469.97C1518.8,5469.97 1517.65,5470.48 1516.77,5471.52C1515.88,5472.55 1515.44,5474.19 1515.44,5476.42C1515.44,5478.69 1515.87,5480.34 1516.72,5481.37C1517.58,5482.4 1518.69,5482.91 1520.06,5482.91C1521.16,5482.91 1522.09,5482.57 1522.82,5481.88C1523.56,5481.19 1524.03,5480.13 1524.23,5478.7Z" style="fill:rgb(3,129,255);fill-rule:nonzero;"/>
                    <path d="M1528.91,5484.88L1528.91,5461.57L1531.73,5461.57L1531.73,5469.93C1533.04,5468.39 1534.69,5467.61 1536.69,5467.61C1537.92,5467.61 1538.98,5467.86 1539.89,5468.35C1540.79,5468.85 1541.44,5469.53 1541.83,5470.4C1542.22,5471.27 1542.42,5472.53 1542.42,5474.18L1542.42,5484.88L1539.61,5484.88L1539.61,5474.18C1539.61,5472.75 1539.3,5471.71 1538.69,5471.06C1538.09,5470.4 1537.22,5470.08 1536.11,5470.08C1535.28,5470.08 1534.5,5470.3 1533.76,5470.74C1533.03,5471.18 1532.51,5471.77 1532.19,5472.53C1531.88,5473.28 1531.73,5474.32 1531.73,5475.64L1531.73,5484.88L1528.91,5484.88Z" style="fill:rgb(3,129,255);fill-rule:nonzero;"/>
                    <path d="M1545.17,5476.44C1545.17,5473.31 1546.02,5470.99 1547.73,5469.49C1549.15,5468.24 1550.89,5467.61 1552.94,5467.61C1555.22,5467.61 1557.08,5468.37 1558.53,5469.9C1559.97,5471.42 1560.7,5473.52 1560.7,5476.2C1560.7,5478.37 1560.38,5480.08 1559.74,5481.33C1559.1,5482.57 1558.16,5483.54 1556.94,5484.23C1555.72,5484.92 1554.39,5485.27 1552.94,5485.27C1550.62,5485.27 1548.74,5484.51 1547.31,5482.99C1545.88,5481.48 1545.17,5479.29 1545.17,5476.44ZM1548.05,5476.44C1548.05,5478.6 1548.52,5480.22 1549.44,5481.3C1550.37,5482.37 1551.54,5482.91 1552.94,5482.91C1554.33,5482.91 1555.49,5482.37 1556.42,5481.29C1557.35,5480.21 1557.81,5478.56 1557.81,5476.34C1557.81,5474.26 1557.34,5472.67 1556.41,5471.6C1555.48,5470.52 1554.32,5469.98 1552.94,5469.98C1551.54,5469.98 1550.37,5470.52 1549.44,5471.59C1548.52,5472.66 1548.05,5474.28 1548.05,5476.44Z" style="fill:rgb(3,129,255);fill-rule:nonzero;"/>
                    <path d="M1562.46,5476.44C1562.46,5473.31 1563.32,5470.99 1565.02,5469.49C1566.45,5468.24 1568.19,5467.61 1570.24,5467.61C1572.52,5467.61 1574.38,5468.37 1575.82,5469.9C1577.27,5471.42 1577.99,5473.52 1577.99,5476.2C1577.99,5478.37 1577.67,5480.08 1577.03,5481.33C1576.39,5482.57 1575.46,5483.54 1574.24,5484.23C1573.02,5484.92 1571.68,5485.27 1570.24,5485.27C1567.92,5485.27 1566.04,5484.51 1564.61,5482.99C1563.18,5481.48 1562.46,5479.29 1562.46,5476.44ZM1565.35,5476.44C1565.35,5478.6 1565.82,5480.22 1566.74,5481.3C1567.67,5482.37 1568.83,5482.91 1570.24,5482.91C1571.63,5482.91 1572.79,5482.37 1573.72,5481.29C1574.64,5480.21 1575.11,5478.56 1575.11,5476.34C1575.11,5474.26 1574.64,5472.67 1573.71,5471.6C1572.78,5470.52 1571.62,5469.98 1570.24,5469.98C1568.83,5469.98 1567.67,5470.52 1566.74,5471.59C1565.82,5472.66 1565.35,5474.28 1565.35,5476.44Z" style="fill:rgb(3,129,255);fill-rule:nonzero;"/>
                    <path d="M1579.68,5479.84L1582.46,5479.4C1582.62,5480.53 1583.05,5481.4 1583.77,5482.01C1584.48,5482.61 1585.47,5482.91 1586.75,5482.91C1588.04,5482.91 1589,5482.64 1589.63,5482.11C1590.25,5481.57 1590.56,5480.94 1590.56,5480.22C1590.56,5479.58 1590.29,5479.07 1589.74,5478.7C1589.35,5478.44 1588.39,5478.12 1586.86,5477.73C1584.8,5477.2 1583.38,5476.74 1582.58,5476.35C1581.78,5475.96 1581.18,5475.43 1580.77,5474.74C1580.36,5474.06 1580.15,5473.31 1580.15,5472.48C1580.15,5471.73 1580.32,5471.03 1580.66,5470.39C1581,5469.75 1581.46,5469.21 1582.04,5468.79C1582.48,5468.46 1583.07,5468.18 1583.83,5467.95C1584.58,5467.73 1585.39,5467.61 1586.25,5467.61C1587.56,5467.61 1588.7,5467.8 1589.68,5468.19C1590.66,5468.57 1591.39,5469.08 1591.86,5469.74C1592.33,5470.39 1592.65,5471.26 1592.83,5472.35L1590.08,5472.73C1589.95,5471.86 1589.59,5471.19 1588.99,5470.7C1588.39,5470.21 1587.55,5469.97 1586.46,5469.97C1585.17,5469.97 1584.25,5470.18 1583.69,5470.62C1583.14,5471.05 1582.87,5471.56 1582.87,5472.15C1582.87,5472.52 1582.98,5472.85 1583.21,5473.15C1583.44,5473.45 1583.8,5473.71 1584.29,5473.91C1584.57,5474.02 1585.4,5474.26 1586.77,5474.64C1588.76,5475.18 1590.14,5475.62 1590.93,5475.97C1591.71,5476.31 1592.33,5476.82 1592.78,5477.47C1593.23,5478.13 1593.45,5478.95 1593.45,5479.92C1593.45,5480.88 1593.18,5481.77 1592.63,5482.62C1592.08,5483.46 1591.3,5484.11 1590.27,5484.57C1589.24,5485.03 1588.07,5485.27 1586.77,5485.27C1584.62,5485.27 1582.97,5484.81 1581.85,5483.9C1580.72,5482.98 1580,5481.63 1579.68,5479.84Z" style="fill:rgb(3,129,255);fill-rule:nonzero;"/>
                    <path d="M1607.66,5479.44L1610.56,5479.81C1610.1,5481.54 1609.25,5482.88 1608.02,5483.83C1606.78,5484.79 1605.2,5485.27 1603.27,5485.27C1600.85,5485.27 1598.92,5484.5 1597.5,5482.98C1596.08,5481.46 1595.37,5479.33 1595.37,5476.58C1595.37,5473.74 1596.09,5471.53 1597.53,5469.97C1598.96,5468.4 1600.83,5467.61 1603.12,5467.61C1605.33,5467.61 1607.14,5468.38 1608.55,5469.92C1609.95,5471.46 1610.65,5473.62 1610.65,5476.41C1610.65,5476.58 1610.65,5476.83 1610.64,5477.17L1598.28,5477.17C1598.38,5479.03 1598.9,5480.45 1599.82,5481.43C1600.75,5482.42 1601.9,5482.91 1603.29,5482.91C1604.32,5482.91 1605.2,5482.64 1605.92,5482.08C1606.65,5481.53 1607.23,5480.65 1607.66,5479.44ZM1598.43,5474.82L1607.69,5474.82C1607.56,5473.4 1607.21,5472.33 1606.63,5471.62C1605.73,5470.52 1604.57,5469.97 1603.15,5469.97C1601.86,5469.97 1600.77,5470.41 1599.89,5471.29C1599.01,5472.17 1598.53,5473.34 1598.43,5474.82Z" style="fill:rgb(3,129,255);fill-rule:nonzero;"/>
                    <path d="M1524.07,5504.27L1524.07,5508.85L1520.22,5508.85L1520.22,5517.6C1520.22,5519.37 1520.26,5520.4 1520.33,5520.69C1520.4,5520.99 1520.57,5521.23 1520.83,5521.42C1521.09,5521.61 1521.41,5521.71 1521.79,5521.71C1522.31,5521.71 1523.06,5521.52 1524.05,5521.15L1524.53,5525.61C1523.22,5526.18 1521.74,5526.47 1520.08,5526.47C1519.06,5526.47 1518.15,5526.3 1517.33,5525.95C1516.51,5525.6 1515.91,5525.15 1515.53,5524.6C1515.15,5524.05 1514.89,5523.3 1514.74,5522.36C1514.62,5521.69 1514.56,5520.34 1514.56,5518.31L1514.56,5508.85L1511.97,5508.85L1511.97,5504.27L1514.56,5504.27L1514.56,5499.95L1520.22,5496.6L1520.22,5504.27L1524.07,5504.27Z" style="fill:rgb(3,129,255);fill-rule:nonzero;"/>
                    <path d="M1533.19,5496.01L1533.19,5507.03C1535.01,5504.86 1537.19,5503.78 1539.72,5503.78C1541.01,5503.78 1542.18,5504.02 1543.23,5504.51C1544.27,5505 1545.06,5505.63 1545.58,5506.39C1546.11,5507.15 1546.47,5508 1546.67,5508.93C1546.86,5509.85 1546.96,5511.29 1546.96,5513.24L1546.96,5525.98L1541.32,5525.98L1541.32,5514.51C1541.32,5512.23 1541.21,5510.79 1541,5510.18C1540.79,5509.56 1540.41,5509.07 1539.87,5508.71C1539.32,5508.35 1538.64,5508.17 1537.83,5508.17C1536.89,5508.17 1536.06,5508.4 1535.32,5508.87C1534.59,5509.33 1534.05,5510.03 1533.7,5510.96C1533.36,5511.9 1533.19,5513.28 1533.19,5515.1L1533.19,5525.98L1527.55,5525.98L1527.55,5496.01L1533.19,5496.01Z" style="fill:rgb(3,129,255);fill-rule:nonzero;"/>
                    <path d="M1564.61,5519.07L1570.23,5520.03C1569.5,5522.13 1568.36,5523.73 1566.81,5524.82C1565.25,5525.92 1563.3,5526.47 1560.96,5526.47C1557.25,5526.47 1554.51,5525.24 1552.73,5522.77C1551.32,5520.79 1550.62,5518.3 1550.62,5515.29C1550.62,5511.69 1551.55,5508.87 1553.39,5506.83C1555.24,5504.79 1557.57,5503.78 1560.39,5503.78C1563.57,5503.78 1566.07,5504.84 1567.9,5506.98C1569.73,5509.11 1570.61,5512.38 1570.53,5516.78L1556.4,5516.78C1556.44,5518.48 1556.9,5519.81 1557.77,5520.76C1558.63,5521.7 1559.72,5522.18 1561.02,5522.18C1561.9,5522.18 1562.64,5521.93 1563.24,5521.44C1563.85,5520.95 1564.3,5520.16 1564.61,5519.07ZM1564.93,5513.26C1564.89,5511.6 1564.47,5510.34 1563.66,5509.47C1562.86,5508.6 1561.89,5508.17 1560.74,5508.17C1559.5,5508.17 1558.49,5508.63 1557.68,5509.54C1556.88,5510.45 1556.49,5511.69 1556.5,5513.26L1564.93,5513.26Z" style="fill:rgb(3,129,255);fill-rule:nonzero;"/>
                    <path d="M1586.58,5525.98L1586.58,5496.01L1592.22,5496.01L1592.22,5506.8C1593.96,5504.78 1596.02,5503.78 1598.4,5503.78C1600.99,5503.78 1603.14,5504.73 1604.84,5506.65C1606.54,5508.56 1607.39,5511.31 1607.39,5514.9C1607.39,5518.61 1606.52,5521.46 1604.79,5523.47C1603.06,5525.47 1600.95,5526.47 1598.48,5526.47C1597.26,5526.47 1596.06,5526.16 1594.88,5525.54C1593.69,5524.92 1592.67,5524 1591.82,5522.79L1591.82,5525.98L1586.58,5525.98ZM1592.18,5514.65C1592.18,5516.9 1592.53,5518.57 1593.22,5519.64C1594.2,5521.17 1595.5,5521.93 1597.11,5521.93C1598.36,5521.93 1599.42,5521.39 1600.29,5520.31C1601.17,5519.22 1601.61,5517.52 1601.61,5515.18C1601.61,5512.7 1601.17,5510.91 1600.28,5509.82C1599.4,5508.72 1598.27,5508.17 1596.89,5508.17C1595.54,5508.17 1594.42,5508.71 1593.52,5509.78C1592.63,5510.85 1592.18,5512.47 1592.18,5514.65Z" style="fill:rgb(3,129,255);fill-rule:nonzero;"/>
                    <path d="M1623.85,5519.07L1629.47,5520.03C1628.75,5522.13 1627.61,5523.73 1626.05,5524.82C1624.49,5525.92 1622.54,5526.47 1620.2,5526.47C1616.5,5526.47 1613.75,5525.24 1611.97,5522.77C1610.57,5520.79 1609.87,5518.3 1609.87,5515.29C1609.87,5511.69 1610.79,5508.87 1612.64,5506.83C1614.48,5504.79 1616.82,5503.78 1619.64,5503.78C1622.81,5503.78 1625.31,5504.84 1627.14,5506.98C1628.98,5509.11 1629.85,5512.38 1629.77,5516.78L1615.65,5516.78C1615.69,5518.48 1616.14,5519.81 1617.01,5520.76C1617.88,5521.7 1618.96,5522.18 1620.26,5522.18C1621.14,5522.18 1621.89,5521.93 1622.49,5521.44C1623.09,5520.95 1623.55,5520.16 1623.85,5519.07ZM1624.17,5513.26C1624.13,5511.6 1623.71,5510.34 1622.91,5509.47C1622.11,5508.6 1621.13,5508.17 1619.98,5508.17C1618.75,5508.17 1617.73,5508.63 1616.93,5509.54C1616.13,5510.45 1615.73,5511.69 1615.75,5513.26L1624.17,5513.26Z" style="fill:rgb(3,129,255);fill-rule:nonzero;"/>
                    <path d="M1631.97,5519.78L1637.63,5518.9C1637.87,5520.02 1638.36,5520.87 1639.09,5521.45C1639.83,5522.03 1640.86,5522.32 1642.18,5522.32C1643.64,5522.32 1644.74,5522.05 1645.48,5521.5C1645.97,5521.12 1646.22,5520.61 1646.22,5519.97C1646.22,5519.53 1646.08,5519.17 1645.82,5518.89C1645.54,5518.61 1644.91,5518.36 1643.93,5518.13C1639.38,5517.11 1636.5,5516.17 1635.28,5515.33C1633.6,5514.15 1632.75,5512.53 1632.75,5510.44C1632.75,5508.56 1633.48,5506.98 1634.94,5505.7C1636.4,5504.41 1638.66,5503.78 1641.72,5503.78C1644.64,5503.78 1646.81,5504.26 1648.23,5505.23C1649.64,5506.19 1650.62,5507.63 1651.15,5509.52L1645.84,5510.52C1645.61,5509.68 1645.18,5509.03 1644.54,5508.58C1643.91,5508.13 1643,5507.9 1641.82,5507.9C1640.34,5507.9 1639.28,5508.12 1638.63,5508.54C1638.2,5508.84 1637.99,5509.23 1637.99,5509.7C1637.99,5510.11 1638.18,5510.46 1638.55,5510.75C1639.06,5511.13 1640.82,5511.67 1643.82,5512.36C1646.82,5513.06 1648.92,5513.91 1650.11,5514.92C1651.29,5515.94 1651.88,5517.36 1651.88,5519.19C1651.88,5521.18 1651.06,5522.89 1649.43,5524.32C1647.8,5525.76 1645.38,5526.47 1642.18,5526.47C1639.28,5526.47 1636.98,5525.87 1635.29,5524.67C1633.6,5523.47 1632.49,5521.84 1631.97,5519.78Z" style="fill:rgb(3,129,255);fill-rule:nonzero;"/>
                    <path d="M1666.17,5504.27L1666.17,5508.85L1662.32,5508.85L1662.32,5517.6C1662.32,5519.37 1662.36,5520.4 1662.43,5520.69C1662.51,5520.99 1662.67,5521.23 1662.93,5521.42C1663.19,5521.61 1663.51,5521.71 1663.89,5521.71C1664.41,5521.71 1665.16,5521.52 1666.15,5521.15L1666.64,5525.61C1665.33,5526.18 1663.84,5526.47 1662.18,5526.47C1661.16,5526.47 1660.25,5526.3 1659.43,5525.95C1658.62,5525.6 1658.02,5525.15 1657.64,5524.6C1657.26,5524.05 1656.99,5523.3 1656.84,5522.36C1656.72,5521.69 1656.66,5520.34 1656.66,5518.31L1656.66,5508.85L1654.07,5508.85L1654.07,5504.27L1656.66,5504.27L1656.66,5499.95L1662.32,5496.6L1662.32,5504.27L1666.17,5504.27Z" style="fill:rgb(3,129,255);fill-rule:nonzero;"/>
                    <path d="M1680.48,5514.82C1680.48,5512.91 1680.94,5511.06 1681.87,5509.28C1682.79,5507.49 1684.1,5506.13 1685.79,5505.19C1687.48,5504.24 1689.37,5503.78 1691.46,5503.78C1694.68,5503.78 1697.32,5504.84 1699.38,5506.98C1701.44,5509.11 1702.47,5511.8 1702.47,5515.06C1702.47,5518.35 1701.43,5521.07 1699.35,5523.23C1697.27,5525.39 1694.65,5526.47 1691.5,5526.47C1689.54,5526.47 1687.68,5526.02 1685.91,5525.12C1684.14,5524.22 1682.79,5522.9 1681.87,5521.16C1680.94,5519.43 1680.48,5517.31 1680.48,5514.82ZM1686.26,5515.12C1686.26,5517.28 1686.76,5518.93 1687.76,5520.07C1688.77,5521.22 1690.01,5521.79 1691.48,5521.79C1692.95,5521.79 1694.18,5521.22 1695.18,5520.07C1696.18,5518.93 1696.67,5517.26 1696.67,5515.08C1696.67,5512.95 1696.18,5511.32 1695.18,5510.18C1694.18,5509.03 1692.95,5508.46 1691.48,5508.46C1690.01,5508.46 1688.77,5509.03 1687.76,5510.18C1686.76,5511.32 1686.26,5512.97 1686.26,5515.12Z" style="fill:rgb(3,129,255);fill-rule:nonzero;"/>
                    <path d="M1725.86,5525.98L1720.22,5525.98L1720.22,5514.9C1720.22,5512.55 1720.1,5511.04 1719.86,5510.35C1719.62,5509.66 1719.23,5509.12 1718.69,5508.74C1718.15,5508.36 1717.49,5508.17 1716.73,5508.17C1715.75,5508.17 1714.88,5508.44 1714.1,5508.99C1713.33,5509.53 1712.8,5510.26 1712.51,5511.16C1712.22,5512.06 1712.08,5513.72 1712.08,5516.15L1712.08,5525.98L1706.44,5525.98L1706.44,5504.27L1711.67,5504.27L1711.67,5507.45C1713.53,5505 1715.88,5503.78 1718.7,5503.78C1719.94,5503.78 1721.08,5504 1722.11,5504.46C1723.14,5504.92 1723.92,5505.5 1724.45,5506.21C1724.98,5506.92 1725.34,5507.72 1725.55,5508.62C1725.76,5509.52 1725.86,5510.81 1725.86,5512.48L1725.86,5525.98Z" style="fill:rgb(3,129,255);fill-rule:nonzero;"/>
                    <path d="M1743.51,5519.07L1749.13,5520.03C1748.41,5522.13 1747.27,5523.73 1745.71,5524.82C1744.15,5525.92 1742.2,5526.47 1739.86,5526.47C1736.15,5526.47 1733.41,5525.24 1731.63,5522.77C1730.23,5520.79 1729.52,5518.3 1729.52,5515.29C1729.52,5511.69 1730.45,5508.87 1732.29,5506.83C1734.14,5504.79 1736.47,5503.78 1739.3,5503.78C1742.47,5503.78 1744.97,5504.84 1746.8,5506.98C1748.63,5509.11 1749.51,5512.38 1749.43,5516.78L1735.3,5516.78C1735.34,5518.48 1735.8,5519.81 1736.67,5520.76C1737.54,5521.7 1738.62,5522.18 1739.92,5522.18C1740.8,5522.18 1741.54,5521.93 1742.15,5521.44C1742.75,5520.95 1743.2,5520.16 1743.51,5519.07ZM1743.83,5513.26C1743.79,5511.6 1743.37,5510.34 1742.57,5509.47C1741.77,5508.6 1740.79,5508.17 1739.64,5508.17C1738.41,5508.17 1737.39,5508.63 1736.59,5509.54C1735.79,5510.45 1735.39,5511.69 1735.4,5513.26L1743.83,5513.26Z" style="fill:rgb(3,129,255);fill-rule:nonzero;"/>
                    <path d="M1751.63,5519.78L1757.29,5518.9C1757.53,5520.02 1758.02,5520.87 1758.75,5521.45C1759.49,5522.03 1760.52,5522.32 1761.84,5522.32C1763.3,5522.32 1764.4,5522.05 1765.13,5521.5C1765.63,5521.12 1765.88,5520.61 1765.88,5519.97C1765.88,5519.53 1765.74,5519.17 1765.47,5518.89C1765.19,5518.61 1764.56,5518.36 1763.59,5518.13C1759.04,5517.11 1756.16,5516.17 1754.94,5515.33C1753.25,5514.15 1752.41,5512.53 1752.41,5510.44C1752.41,5508.56 1753.14,5506.98 1754.6,5505.7C1756.06,5504.41 1758.32,5503.78 1761.38,5503.78C1764.3,5503.78 1766.46,5504.26 1767.88,5505.23C1769.3,5506.19 1770.28,5507.63 1770.81,5509.52L1765.49,5510.52C1765.27,5509.68 1764.84,5509.03 1764.2,5508.58C1763.56,5508.13 1762.66,5507.9 1761.48,5507.9C1760,5507.9 1758.93,5508.12 1758.29,5508.54C1757.86,5508.84 1757.65,5509.23 1757.65,5509.7C1757.65,5510.11 1757.84,5510.46 1758.21,5510.75C1758.72,5511.13 1760.47,5511.67 1763.48,5512.36C1766.48,5513.06 1768.58,5513.91 1769.77,5514.92C1770.94,5515.94 1771.53,5517.36 1771.53,5519.19C1771.53,5521.18 1770.72,5522.89 1769.09,5524.32C1767.45,5525.76 1765.04,5526.47 1761.84,5526.47C1758.94,5526.47 1756.64,5525.87 1754.95,5524.67C1753.26,5523.47 1752.15,5521.84 1751.63,5519.78Z" style="fill:rgb(3,129,255);fill-rule:nonzero;"/>
                </g>
                <g transform="matrix(1,0,0,1,1722.88,5565.88)">
                    <path d="M0.707,-78.399C22.161,-99.852 56.944,-99.852 78.399,-78.399C99.852,-56.944 99.852,-22.162 78.399,-0.707C56.944,20.746 22.161,20.746 0.707,-0.708L-0.707,0.706C21.527,22.942 57.578,22.942 79.813,0.707C102.048,-21.528 102.048,-57.578 79.813,-79.813C57.578,-102.048 21.527,-102.048 -0.707,-79.813L0.707,-78.399Z" style="fill:rgb(115,255,212);"/>
                </g>
                <g transform="matrix(0,-1,-1,0,1430.01,5640.62)">
                    <path d="M-12.543,-13.544C-5.069,-13.544 1,-7.475 1,0C1,7.475 -5.069,13.544 -12.543,13.544C-20.018,13.544 -26.087,7.475 -26.087,0C-26.087,-7.475 -20.018,-13.544 -12.543,-13.544ZM-12.543,-11.543C-18.914,-11.543 -24.087,-6.371 -24.087,0C-24.087,6.371 -18.914,11.543 -12.543,11.543C-6.173,11.543 -1.001,6.371 -1.001,0C-1.001,-6.371 -6.173,-11.543 -12.543,-11.543Z" style="fill:rgb(115,255,212);"/>
                </g>
            </g>
        </g>
    </g>
    <defs>
        <linearGradient id="_Linear1" x1="0" y1="0" x2="1" y2="0" gradientUnits="userSpaceOnUse" gradientTransform="matrix(1,5.55112e-17,5.55112e-17,-1,0,0.0762143)"><stop offset="0" style="stop-color:rgb(115,255,212);stop-opacity:1"/><stop offset="0.06" style="stop-color:rgb(115,255,212);stop-opacity:1"/><stop offset="1" style="stop-color:rgb(3,129,255);stop-opacity:1"/></linearGradient>
    </defs>
</svg>
