<svg xmlns="http://www.w3.org/2000/svg" viewBox="0 0 31.742 32" xmlns:v="https://vecta.io/nano"><circle cx="15.871" cy="16" r="13.654" fill="#fff"/><path d="M15.871 32c8.771 0 15.871-7.157 15.871-16S24.643 0 15.871 0 0 7.157 0 16s7.1 16 15.871 16zm8.566-25.154c-.026 1.53-1.235 2.723-2.727 2.723H11.344c.026-1.53 1.235-2.723 2.727-2.723zm-1.415 7.78c-.026 1.426-1.08 2.593-2.469 2.749h-7.434c.077-.337.154-.674.18-1.011v-.389c0-.233 0-.467-.052-.7 0-.233-.051-.467-.103-.674h9.878zm-.771 10.502c1.338-.13 2.392-1.297 2.392-2.697H13.737c-1.338.156-2.392 1.297-2.392 2.697zM10.829 14.782c.154.389.232.804.232 1.219a3.55 3.55 0 0 1-.283 1.374c-.514 1.141-1.672 1.919-2.984 1.919-.18 0-.36-.026-.514-.052-1.209-.182-2.212-1.037-2.598-2.23a2.84 2.84 0 0 1-.18-1.037c0-.363.051-.7.18-1.011.386-1.167 1.389-2.049 2.624-2.256.154-.052.334-.052.489-.052 1.338 0 2.469.804 2.984 1.945 0 .078.026.156.051.182z" fill="#232f3c" fill-rule="evenodd"/></svg>